<?xml version="1.0" standalone="no"?>
<!DOCTYPE svg PUBLIC "-//W3C//DTD SVG 20010904//EN"
 "http://www.w3.org/TR/2001/REC-SVG-20010904/DTD/svg10.dtd">
<svg version="1.0" xmlns="http://www.w3.org/2000/svg"
 width="16.000000pt" height="16.000000pt" viewBox="0 0 16.000000 16.000000"
 preserveAspectRatio="xMidYMid meet">
<metadata>
Created by potrace 1.11, written by Peter Selinger 2001-2013
</metadata>
<g transform="translate(0.000000,16.000000) scale(0.003226,-0.003226)"
fill="#000000" stroke="none">
<path d="M2325 4884 c-588 -58 -1075 -280 -1469 -668 -442 -435 -684 -967
-726 -1591 -54 -813 313 -1612 964 -2099 415 -310 884 -466 1399 -466 383 0
713 77 1050 247 399 199 745 521 974 903 259 433 376 914 343 1422 -37 600
-283 1143 -709 1568 -366 365 -816 591 -1326 666 -97 14 -420 26 -500 18z
m518 -254 c427 -75 814 -278 1120 -587 185 -187 307 -359 418 -588 151 -313
219 -616 219 -975 0 -760 -399 -1473 -1038 -1859 -217 -131 -527 -247 -706
-266 l-51 -5 65 23 c162 59 275 132 391 254 240 251 368 638 370 1114 1 305
-65 492 -382 1079 -268 498 -346 658 -454 930 -96 243 -162 456 -214 690 -25
112 -35 139 -56 158 -63 54 -102 16 -134 -128 -66 -306 -186 -662 -328 -974
-43 -95 -206 -418 -261 -516 -14 -25 -43 -79 -65 -120 -23 -41 -56 -102 -74
-135 -148 -269 -249 -499 -294 -670 -52 -195 -50 -477 6 -749 93 -461 337
-788 683 -916 133 -50 -2 -30 -181 26 -320 101 -611 280 -855 525 -172 172
-296 347 -407 574 -155 315 -225 619 -225 975 0 595 222 1138 636 1555 340
342 779 552 1264 605 126 14 421 3 553 -20z m-328 -512 c80 -310 276 -756 580
-1318 239 -442 314 -606 366 -801 19 -72 23 -110 23 -259 1 -190 -12 -310 -50
-465 -75 -313 -227 -548 -437 -679 -254 -158 -650 -179 -935 -50 -382 173
-600 644 -579 1248 5 165 22 239 94 421 46 117 187 397 296 590 92 163 348
682 406 824 58 143 181 496 181 521 0 11 21 39 31 40 3 0 14 -33 24 -72z"/>
<path d="M2478 4124 c-5 -4 -8 -32 -8 -63 0 -31 -8 -87 -17 -126 -9 -38 -16
-82 -16 -97 0 -16 -4 -28 -9 -28 -4 0 -5 -18 -2 -40 5 -32 3 -40 -9 -40 -8 0
-18 -7 -21 -16 -4 -12 -2 -15 9 -10 11 4 15 -2 15 -25 0 -18 -4 -28 -10 -24
-5 3 -10 13 -10 22 0 29 -13 4 -40 -79 -28 -85 -29 -108 -4 -74 9 13 14 15 14
6 0 -26 13 0 16 32 l3 33 -15 -25 -15 -25 7 25 c9 33 11 35 29 20 17 -14 21
-95 5 -105 -6 -4 -8 -15 -5 -25 5 -17 3 -17 -19 -7 -14 7 -26 20 -26 30 0 35
-27 16 -44 -32 -10 -28 -18 -56 -20 -63 -1 -7 -5 -19 -9 -25 -5 -7 -5 -18 -1
-25 4 -6 3 -8 -3 -5 -6 4 -13 -2 -16 -13 -3 -13 -1 -18 6 -13 7 3 2 -5 -10
-18 -27 -30 -45 -75 -45 -114 0 -16 -2 -24 -5 -17 -5 13 -93 -157 -93 -179 0
-6 6 -9 13 -6 6 2 11 13 9 23 -2 16 -1 16 7 4 6 -8 8 -25 5 -36 -3 -12 0 -25
6 -29 9 -5 10 -1 5 14 -4 14 -1 23 9 27 9 3 16 15 16 26 0 14 -5 18 -15 14
-18 -6 -16 19 3 67 16 38 21 34 15 -13 -7 -47 11 -55 30 -12 6 15 14 29 17 32
8 7 7 59 -1 54 -4 -2 -9 7 -11 21 -3 14 -1 25 4 25 5 0 8 5 6 12 -2 6 13 27
33 45 33 29 37 38 32 67 -3 23 0 38 12 50 13 13 15 20 6 29 -18 18 -13 22 27
21 59 -1 62 -3 62 -28 0 -13 7 -29 15 -36 13 -10 15 -9 15 9 0 11 5 21 11 21
7 0 9 -9 5 -22 -3 -13 -6 -36 -7 -53 -1 -17 -3 -23 -6 -12 -2 9 -9 15 -14 12
-13 -9 -11 -21 6 -39 12 -12 13 -20 5 -35 -5 -11 -9 -35 -9 -53 l2 -33 7 35
c6 27 7 20 7 -35 0 -38 -2 -56 -4 -38 -2 17 -11 34 -20 37 -11 5 -13 2 -8 -11
16 -37 17 -65 5 -73 -11 -7 -10 -17 5 -55 13 -35 16 -61 11 -99 -4 -28 -9
-170 -12 -316 -3 -146 -7 -271 -9 -278 -3 -7 -5 -191 -5 -409 -1 -217 -3 -393
-7 -389 -7 7 -21 29 -46 77 l-18 34 21 -25 c21 -24 22 -24 17 -3 -3 13 0 21 6
20 8 -1 12 63 14 213 3 243 -5 480 -17 480 -12 0 -30 -58 -30 -96 0 -19 4 -34
9 -34 5 0 11 -42 13 -92 6 -115 -15 -227 -40 -223 -9 1 -11 0 -4 -2 8 -3 12
-20 11 -46 -1 -23 1 -59 5 -79 7 -31 5 -38 -7 -38 -22 0 -30 -17 -17 -37 9
-16 10 -15 5 5 -7 24 9 31 19 7 7 -18 -3 -47 -14 -40 -4 3 -17 20 -28 39 -18
30 -18 34 -4 29 15 -6 15 -5 3 10 -8 10 -11 21 -7 24 4 4 12 1 17 -7 8 -11 9
-8 4 13 -4 21 -3 27 6 21 7 -4 9 -3 6 3 -8 13 -42 10 -61 -6 -18 -15 -20 -9
-7 17 5 9 15 38 22 64 7 26 17 44 21 42 4 -3 8 0 8 5 0 20 -28 11 -33 -11 -8
-31 -16 -19 -10 14 3 15 9 25 14 22 5 -3 9 9 9 25 0 24 -4 31 -20 31 -11 0
-20 4 -20 9 0 5 -9 7 -20 4 -11 -3 -20 -9 -20 -14 0 -5 -47 14 -104 43 -97 48
-107 51 -130 38 -14 -7 -26 -22 -26 -32 0 -11 -5 -16 -11 -13 -7 5 -5 15 6 31
14 21 14 27 0 56 -8 18 -13 25 -11 16 3 -11 0 -15 -8 -12 -7 3 -16 -2 -19 -10
-7 -18 1 -46 13 -46 4 0 8 -10 8 -22 0 -13 3 -42 7 -66 7 -37 6 -42 -9 -36 -9
3 -16 2 -16 -2 0 -5 -2 -44 -3 -87 -2 -49 2 -81 8 -85 7 -4 15 -16 18 -26 12
-31 17 -13 7 22 -5 20 -5 30 1 27 5 -4 9 -14 9 -24 0 -10 7 -24 15 -31 8 -7
15 -23 15 -36 0 -29 20 -32 27 -4 5 19 6 19 18 3 12 -15 15 -15 43 8 17 13 31
30 31 38 1 11 6 10 21 -4 11 -10 18 -21 15 -24 -4 -3 -10 1 -14 8 -6 9 -10 5
-15 -14 -4 -16 -2 -33 5 -41 7 -9 8 -14 1 -14 -6 0 -12 6 -15 13 -2 6 -8 8
-13 4 -10 -10 14 -27 38 -27 9 0 23 7 31 15 13 13 17 12 29 -2 11 -15 11 -16
-6 -10 -17 7 -18 3 -14 -45 3 -29 11 -66 18 -83 l13 -30 7 25 c15 53 20 85 13
73 -16 -23 -37 -19 -38 9 -1 15 2 25 6 22 4 -2 9 1 11 8 2 6 14 -3 27 -20 12
-18 18 -32 13 -32 -6 0 -5 -18 2 -46 6 -25 16 -45 21 -44 12 2 35 -76 35 -122
0 -31 4 -38 20 -38 11 0 20 -5 20 -11 0 -5 5 -7 10 -4 7 4 6 13 -1 26 -6 12
-8 23 -5 27 3 3 6 0 6 -8 0 -10 3 -10 14 0 8 6 12 19 9 28 -4 9 6 2 21 -16 16
-18 26 -36 22 -39 -3 -4 -6 -4 -6 0 0 3 -12 -5 -26 -18 -25 -23 -25 -25 -13
-84 15 -80 34 -81 26 -2 -5 45 -3 62 8 71 8 7 15 11 15 9 0 -2 3 -96 6 -209 2
-113 9 -243 15 -290 7 -54 7 -86 1 -88 -6 -2 -8 -12 -5 -22 4 -15 0 -20 -13
-20 -16 0 -17 -2 -4 -10 13 -8 13 -11 1 -22 -10 -10 -12 -10 -7 0 8 14 -31 17
-52 3 -17 -11 17 -21 71 -21 31 0 39 -4 47 -25 12 -31 28 -32 39 -2 8 21 18
25 78 30 93 8 173 26 170 39 -1 6 4 13 12 16 9 3 11 0 6 -8 -10 -17 23 -6 99
32 45 23 56 32 45 40 -10 7 -8 8 9 3 14 -4 22 -2 22 6 0 7 3 9 6 6 11 -11 111
85 168 161 49 65 99 157 136 251 11 27 11 36 2 39 -18 6 -15 19 6 24 20 6 46
97 32 112 -5 5 -11 -2 -14 -18 -4 -14 -8 -37 -11 -51 -3 -16 -14 -27 -30 -31
-19 -5 -25 -13 -25 -34 0 -16 -7 -36 -16 -44 -14 -15 -14 -16 1 -16 11 0 15
-5 12 -14 -3 -8 -1 -17 6 -20 7 -3 2 -3 -11 0 -13 3 -37 0 -54 -7 -28 -11 -30
-15 -25 -52 3 -22 10 -44 16 -50 8 -8 8 -2 0 21 -7 19 -8 37 -3 42 5 5 9 0 10
-13 0 -12 4 -29 8 -38 11 -24 -34 -81 -71 -91 -18 -5 -35 -13 -38 -18 -4 -6 1
-7 12 -3 16 6 16 5 4 -10 -11 -13 -11 -17 -1 -17 8 0 11 -3 8 -6 -3 -3 -16 1
-28 8 -18 11 -23 11 -35 -6 -12 -16 -12 -22 -2 -35 10 -12 9 -14 -7 -8 -16 6
-17 5 -6 -8 7 -9 10 -18 6 -22 -3 -4 -13 2 -21 13 -8 10 -15 14 -15 9 0 -6 5
-16 10 -21 7 -7 2 -15 -17 -23 -16 -7 -36 -17 -46 -23 -10 -5 -22 -6 -27 -3
-6 4 -10 1 -10 -4 0 -6 5 -11 12 -11 6 0 9 -2 7 -5 -3 -2 -20 -1 -37 5 -18 5
-30 5 -27 0 3 -5 -4 -14 -15 -20 -18 -10 -19 -9 -10 15 7 20 6 25 -5 25 -8 0
-12 -6 -9 -14 3 -8 -11 -31 -34 -54 -33 -33 -49 -41 -88 -45 -27 -3 -62 -8
-79 -11 -23 -5 -26 -4 -10 3 19 9 19 10 -2 10 -12 1 -23 -5 -26 -11 -3 -7 -2
16 1 51 4 50 2 62 -8 56 -9 -5 -10 -2 -6 12 8 25 17 199 18 341 0 61 4 112 9
112 11 0 10 5 13 -95 4 -105 14 -155 33 -155 12 0 14 7 7 38 -4 20 -9 127 -11
237 -3 220 -10 497 -17 733 -2 83 0 152 4 152 5 0 10 -19 12 -42 2 -24 4 48 3
160 0 111 3 202 8 202 4 0 7 18 7 40 0 22 4 40 9 40 5 0 -6 16 -24 36 -19 20
-38 33 -44 29 -6 -3 -11 -1 -11 4 0 6 7 11 15 11 8 0 15 5 15 10 0 6 -8 10
-17 8 -17 -3 -18 10 -18 146 0 111 3 150 13 153 7 3 12 21 12 44 0 21 5 39 10
39 6 0 10 -12 10 -27 0 -48 17 -60 22 -17 3 22 1 41 -3 44 -4 3 -9 39 -11 80
-2 58 -6 75 -18 75 -8 0 -19 -17 -26 -40 -17 -54 -17 -105 -1 -105 8 0 9 -2 1
-8 -7 -4 -14 -16 -17 -27 -3 -11 -6 12 -7 50 -2 97 -8 259 -13 393 -3 62 -1
112 4 112 5 0 10 -17 11 -37 1 -21 3 -49 4 -63 1 -14 3 -62 3 -107 1 -46 4
-83 9 -83 4 0 7 70 7 155 0 85 -3 155 -6 155 -3 0 -4 12 -1 26 3 16 -1 29 -8
34 -11 7 -11 13 -2 32 7 13 10 15 8 6 -3 -10 -1 -18 5 -18 16 0 22 29 9 45 -7
8 -10 24 -7 35 3 11 1 18 -4 14 -5 -3 -9 -14 -9 -25 0 -10 -4 -19 -10 -19 -5
0 -10 -23 -10 -51 0 -31 4 -48 10 -44 6 3 10 1 10 -4 0 -6 -5 -11 -11 -11 -5
0 -7 -4 -4 -10 3 -5 1 -10 -4 -10 -7 0 -11 26 -11 64 0 35 -3 72 -7 82 -4 12
-3 15 5 10 7 -4 14 3 18 19 9 38 40 29 37 -10 -2 -20 0 -25 6 -16 5 8 8 -17 7
-62 0 -41 -4 -73 -7 -72 -3 2 -3 -10 -1 -28 l5 -31 10 24 c10 24 11 23 17 -15
5 -35 7 -37 13 -17 5 12 5 31 2 42 -4 11 -2 20 4 20 7 0 11 -28 11 -72 0 -46
4 -68 9 -59 13 20 31 -17 24 -50 -3 -15 0 -29 5 -33 6 -4 8 2 5 14 -3 11 -1
20 5 20 5 0 12 -10 16 -22 8 -33 7 -40 -4 -33 -18 11 -50 -6 -50 -27 0 -17 5
-20 43 -17 l42 4 -1 -59 c-1 -52 1 -57 13 -40 7 10 11 24 9 31 -3 7 -1 13 4
13 6 0 10 -4 10 -9 0 -5 3 -18 6 -28 5 -15 4 -15 -5 -3 -9 13 -11 13 -11 -2 0
-9 -7 -21 -17 -26 -20 -12 -10 -42 14 -42 14 0 15 2 4 9 -19 12 -9 34 17 36
12 1 20 -1 17 -3 -3 -3 -1 -10 4 -16 13 -18 22 -48 12 -41 -17 10 -22 -15 -7
-31 10 -10 14 -25 11 -42 -4 -21 -3 -23 3 -8 8 19 9 18 16 -5 4 -14 9 -19 13
-11 3 7 -2 24 -11 37 -9 13 -16 28 -16 32 0 4 4 1 10 -7 13 -21 23 -6 11 17
-6 10 -31 65 -56 123 -68 157 -79 180 -87 180 -4 0 -5 6 -2 14 3 8 1 17 -5 21
-6 3 -12 18 -12 33 -1 17 -3 21 -6 10 -2 -10 -8 -18 -13 -18 -4 0 -5 12 -1 28
8 26 -9 87 -41 149 -6 12 -12 33 -12 45 -3 38 -37 139 -46 133 -4 -3 -8 15 -8
40 1 24 -4 50 -9 57 -6 7 -13 29 -16 48 -3 19 -8 51 -11 70 -4 19 -10 57 -14
83 -4 27 -10 45 -14 41z m45 -267 c8 -6 7 -7 -3 -4 -11 2 -15 18 -16 53 l-1
49 4 -45 c2 -24 10 -48 16 -53z m-63 13 c0 -11 -4 -20 -9 -20 -5 0 -7 9 -4 20
3 11 7 20 9 20 2 0 4 -9 4 -20z m-3 -97 c0 -37 -2 -61 -5 -53 -2 8 -8 28 -12
43 -6 17 -6 25 0 22 6 -4 10 7 10 24 0 17 2 31 4 31 3 0 4 -30 3 -67z m62 22
c2 17 21 -19 21 -40 0 -16 -2 -17 -9 -5 -6 8 -7 18 -5 22 3 4 1 8 -5 8 -5 0
-12 -8 -14 -17 -3 -10 -5 5 -5 32 0 43 2 46 8 20 4 -16 8 -25 9 -20z m-2 -87
c-3 -8 -6 -5 -6 6 -1 11 2 17 5 13 3 -3 4 -12 1 -19z m-69 -151 c-1 -32 -7
-69 -14 -82 -7 -14 -15 -37 -17 -52 -3 -20 -4 -17 -6 14 0 24 4 43 11 45 7 3
12 31 12 80 1 42 4 71 9 64 4 -6 6 -37 5 -69z m-48 63 c0 -5 -4 -10 -10 -10
-5 0 -10 5 -10 10 0 6 5 10 10 10 6 0 10 -4 10 -10z m200 -34 c0 -8 3 -21 6
-30 3 -9 2 -16 -4 -16 -5 0 -12 14 -14 30 -3 17 -1 30 4 30 4 0 8 -6 8 -14z
m-271 -147 c-20 -12 -22 -4 -7 20 11 18 14 19 16 5 2 -9 -2 -20 -9 -25z m118
-16 c1 -26 -1 -33 -7 -23 -12 18 -13 60 -2 60 4 0 8 -17 9 -37z m141 -346 c2
-10 -3 -17 -12 -17 -10 0 -16 9 -16 21 0 24 23 21 28 -4z m-382 -14 c-10 -10
-19 5 -10 18 6 11 8 11 12 0 2 -7 1 -15 -2 -18z m363 -563 c8 0 3 -951 -5
-959 -2 -2 -4 142 -5 320 0 178 -2 405 -4 504 -1 99 -1 170 2 158 2 -13 8 -23
12 -23z m-332 -544 c0 -8 -6 -12 -14 -9 -7 3 -10 9 -7 14 8 14 21 11 21 -5z
m-290 -58 c-2 -13 -4 -5 -4 17 -1 22 1 32 4 23 2 -10 2 -28 0 -40z m420 -20
c-2 -13 -4 -3 -4 22 0 25 2 35 4 23 2 -13 2 -33 0 -45z m-422 -38 c-4 -11 -2
-20 4 -20 6 0 10 -18 9 -42 l-1 -43 -4 38 c-3 28 -8 37 -18 33 -10 -3 -13 4
-13 25 1 18 6 29 15 29 10 0 12 -6 8 -20z m290 -22 c0 -21 0 -38 -1 -38 -1 0
-17 18 -34 40 l-32 40 34 -2 c31 -3 33 -5 33 -40z m129 -75 c-6 -22 -8 -23
-16 -9 -5 9 -6 31 -2 49 6 31 7 31 15 9 5 -13 6 -35 3 -49z m-299 16 c-5 -14
-2 -25 6 -30 11 -6 9 -12 -8 -28 -12 -12 -24 -17 -27 -12 -3 5 1 11 9 15 8 3
15 11 15 17 0 8 -4 8 -15 -1 -10 -9 -15 -9 -15 -1 0 6 4 11 9 11 5 0 12 11 15
25 4 14 9 25 12 25 3 0 2 -10 -1 -21z m-80 -39 c3 -5 12 -7 20 -3 8 3 15 1 15
-5 0 -6 -8 -9 -17 -7 -10 2 -24 4 -30 4 -7 1 -13 6 -13 11 0 13 17 13 25 0z
m145 -50 c0 8 3 11 6 7 3 -3 1 -13 -4 -23 -9 -16 -11 -15 -22 7 -12 22 -12 23
3 10 14 -11 17 -11 17 -1z m232 -22 c-9 -9 -12 -7 -12 12 0 19 3 21 12 12 9
-9 9 -15 0 -24z m218 -148 c0 -16 -4 -30 -10 -30 -5 0 -10 14 -10 30 0 17 5
30 10 30 6 0 10 -13 10 -30z m-305 -23 c0 -8 4 -19 8 -23 4 -4 7 -16 7 -26 0
-11 7 -18 18 -17 10 0 12 3 5 6 -7 2 -13 12 -13 21 0 13 2 13 14 -3 7 -10 11
-28 9 -39 -4 -16 -2 -17 5 -7 7 9 12 10 16 2 4 -6 2 -11 -4 -11 -6 0 -9 -4 -5
-9 3 -5 1 -12 -5 -16 -5 -3 -10 0 -10 7 0 7 -12 24 -25 37 -14 13 -26 32 -26
42 -2 32 -4 37 -11 45 -5 4 -8 -1 -8 -11 0 -10 -3 -16 -6 -12 -4 3 -4 13 0 22
7 20 31 14 31 -8z m300 -118 c-6 -110 -15 -113 -15 -6 0 52 4 87 10 87 6 0 8
-30 5 -81z m-8 -151 c-3 -7 -5 -2 -5 12 0 14 2 19 5 13 2 -7 2 -19 0 -25z
m666 -28 c3 -11 1 -20 -4 -20 -5 0 -9 9 -9 20 0 11 2 20 4 20 2 0 6 -9 9 -20z
m-5 -55 c-3 -3 -9 2 -12 12 -6 14 -5 15 5 6 7 -7 10 -15 7 -18z m-55 -85 c-3
-11 -7 -20 -9 -20 -2 0 -4 9 -4 20 0 11 4 20 9 20 5 0 7 -9 4 -20z m-323 -347
c-8 -3 -18 -11 -22 -17 -4 -6 -10 -7 -15 -3 -9 10 16 27 37 26 13 -1 13 -1 0
-6z m-414 -81 c-11 -10 -15 4 -8 28 l7 25 3 -23 c2 -13 1 -26 -2 -30z m95 17
c-9 -22 -10 -22 -10 -3 -1 11 2 24 6 27 12 12 14 0 4 -24z"/>
<path d="M2200 1843 c0 -15 18 -35 23 -27 3 5 -1 15 -9 22 -8 7 -14 9 -14 5z"/>
<path d="M2411 3754 c0 -11 3 -14 6 -6 3 7 2 16 -1 19 -3 4 -6 -2 -5 -13z"/>
<path d="M2582 3410 c-7 -19 -6 -26 5 -28 21 -5 25 2 14 29 l-9 24 -10 -25z"/>
<path d="M2315 3331 c5 -16 4 -21 -4 -17 -13 8 -13 -1 -1 -29 7 -16 9 -17 9
-3 1 9 6 18 13 20 8 3 6 12 -6 29 l-18 24 7 -24z"/>
<path d="M2395 3327 c-4 -10 -5 -21 -1 -24 10 -10 18 4 13 24 -4 17 -4 17 -12
0z"/>
<path d="M2401 3244 c0 -11 3 -14 6 -6 3 7 2 16 -1 19 -3 4 -6 -2 -5 -13z"/>
<path d="M2280 3235 c0 -8 5 -15 10 -15 6 0 10 7 10 15 0 8 -4 15 -10 15 -5 0
-10 -7 -10 -15z"/>
<path d="M2375 3208 c11 -6 23 -16 27 -22 5 -6 8 -1 8 12 0 17 -6 22 -27 22
-26 -1 -27 -1 -8 -12z"/>
<path d="M2530 3185 c0 -22 5 -47 11 -55 8 -12 9 -10 4 8 -4 13 -1 29 6 38 10
12 9 18 -4 32 -16 15 -17 14 -17 -23z"/>
<path d="M2320 3163 c0 -13 5 -23 10 -23 13 0 13 11 0 30 -8 12 -10 11 -10 -7z"/>
<path d="M2401 3084 c0 -11 3 -14 6 -6 3 7 2 16 -1 19 -3 4 -6 -2 -5 -13z"/>
<path d="M2617 3093 c-13 -12 -7 -33 8 -33 8 0 15 9 15 20 0 20 -11 26 -23 13z"/>
<path d="M2846 3010 c7 -28 12 -35 18 -29 2 2 -2 15 -10 29 l-15 25 7 -25z"/>
<path d="M2323 2940 c0 -25 2 -35 4 -22 2 12 2 32 0 45 -2 12 -4 2 -4 -23z"/>
<path d="M2411 2964 c0 -11 3 -14 6 -6 3 7 2 16 -1 19 -3 4 -6 -2 -5 -13z"/>
<path d="M2633 2940 c0 -25 2 -35 4 -22 2 12 2 32 0 45 -2 12 -4 2 -4 -23z"/>
<path d="M2085 2939 c-9 -16 -13 -35 -9 -41 4 -6 3 -8 -2 -5 -6 3 -37 -49 -69
-116 -33 -67 -70 -139 -83 -161 -13 -21 -25 -55 -27 -75 l-3 -37 45 -3 c33 -1
44 1 41 11 -3 7 -19 13 -36 13 -28 0 -32 3 -32 27 0 16 4 28 9 28 5 0 14 15
21 33 7 18 14 26 17 19 3 -7 0 -19 -6 -26 -9 -11 -7 -15 9 -19 14 -4 20 0 21
11 0 14 2 13 10 -3 8 -17 9 -15 5 9 -5 39 2 56 25 56 10 0 19 7 19 15 0 20 10
19 26 -2 12 -16 13 -15 14 10 0 20 -5 27 -20 27 -15 0 -20 7 -20 25 0 15 6 25
14 25 9 0 12 7 9 23 -4 18 -3 19 6 7 9 -12 11 -11 11 8 0 15 6 22 20 22 11 0
20 4 20 10 0 6 -9 6 -26 0 -14 -6 -26 -10 -27 -10 -1 0 -2 11 -2 24 0 21 4 23
30 19 22 -4 35 1 49 16 18 20 18 22 3 39 -10 10 -17 23 -17 29 0 26 -31 21
-45 -8z m43 -17 l20 -28 -23 -2 c-13 -1 -27 3 -31 9 -4 8 1 9 16 4 20 -6 21
-5 9 8 -8 8 -17 13 -21 10 -10 -5 -10 11 -1 20 9 10 10 10 31 -21z m-73 -94
c-8 -37 -25 -61 -25 -35 0 17 20 67 27 67 3 0 2 -15 -2 -32z m-35 -118 c9 -16
6 -22 -15 -36 -14 -9 -25 -24 -26 -33 0 -12 -2 -11 -8 4 -14 35 8 75 23 43 3
-7 4 -1 1 15 -6 31 9 36 25 7z"/>
<path d="M2830 2962 c0 -14 24 -32 43 -32 13 0 17 -5 13 -16 -3 -8 -2 -12 4
-9 14 9 12 -19 -2 -34 -11 -10 -10 -11 3 -6 10 4 20 2 24 -4 3 -6 1 -11 -6
-11 -8 0 -7 -5 2 -16 12 -15 11 -16 -11 -10 l-25 8 23 -17 c24 -17 42 -13 42
10 0 8 -14 44 -32 80 -26 52 -37 65 -55 65 -13 0 -23 -4 -23 -8z"/>
<path d="M2800 2934 c0 -8 5 -12 10 -9 6 4 8 11 5 16 -9 14 -15 11 -15 -7z"/>
<path d="M2560 2880 c0 -5 5 -10 11 -10 5 0 7 5 4 10 -3 6 -8 10 -11 10 -2 0
-4 -4 -4 -10z"/>
<path d="M2625 2880 c-3 -5 -1 -10 4 -10 6 0 11 5 11 10 0 6 -2 10 -4 10 -3 0
-8 -4 -11 -10z"/>
<path d="M2401 2844 c0 -11 3 -14 6 -6 3 7 2 16 -1 19 -3 4 -6 -2 -5 -13z"/>
<path d="M2843 2845 c0 -8 6 -16 14 -19 11 -4 11 -1 3 14 -13 24 -17 25 -17 5z"/>
<path d="M2124 2809 c-3 -6 -2 -15 4 -21 6 -6 11 -2 15 11 5 22 -7 29 -19 10z"/>
<path d="M2578 2813 c7 -3 16 -2 19 1 4 3 -2 6 -13 5 -11 0 -14 -3 -6 -6z"/>
<path d="M2927 2781 c-21 -13 -24 -20 -15 -29 7 -7 17 -12 23 -12 22 0 47 -37
38 -57 -5 -10 -8 -25 -7 -33 1 -8 2 -21 3 -27 2 -24 21 -13 21 11 0 14 5 28
10 31 10 6 14 -7 11 -33 -1 -8 5 -24 13 -37 9 -14 16 -35 17 -47 0 -13 3 -17
6 -10 8 20 18 13 20 -15 1 -19 -1 -22 -8 -12 -7 11 -9 11 -9 -3 0 -21 20 -24
38 -6 9 9 12 9 12 0 0 -7 -4 -12 -9 -12 -5 0 -11 -8 -14 -17 -2 -10 -8 -27
-13 -37 -5 -13 -4 -17 4 -12 16 10 61 -4 58 -17 -2 -7 -1 -9 1 -4 11 18 18 3
19 -41 1 -29 -1 -40 -5 -28 -5 14 -10 16 -15 7 -4 -6 -3 -17 2 -24 19 -24 21
-61 6 -78 -13 -14 -13 -21 -3 -37 12 -19 13 -19 33 -1 11 11 26 17 33 15 7 -3
17 3 22 12 9 14 10 15 11 1 0 -8 -6 -24 -14 -34 -7 -10 -11 -28 -9 -39 16 -70
25 -96 32 -96 15 0 22 33 9 42 -9 5 -10 8 -1 8 6 0 15 -5 19 -11 3 -6 10 -7
15 -2 18 18 -194 488 -216 479 -5 -2 -11 10 -11 27 -1 17 -6 33 -13 35 -6 2
-9 8 -5 13 3 5 0 9 -5 9 -6 0 -11 5 -11 11 0 14 -49 117 -59 123 -4 3 -19 -3
-34 -13z m57 -48 c9 -19 15 -37 13 -40 -2 -2 -10 10 -17 27 -7 16 -19 30 -26
30 -8 0 -14 7 -14 15 0 25 26 6 44 -32z m150 -299 c3 -8 2 -12 -4 -9 -6 3 -10
10 -10 16 0 14 7 11 14 -7z m36 -65 c0 -6 -4 -7 -10 -4 -5 3 -10 11 -10 16 0
6 5 7 10 4 6 -3 10 -11 10 -16z m65 -204 c0 -25 -3 -45 -7 -45 -9 0 -10 52 -2
74 9 23 10 21 9 -29z m24 -30 c0 -5 -4 -3 -9 5 -5 8 -9 22 -9 30 0 16 17 -16
18 -35z"/>
<path d="M2565 2770 c-3 -5 3 -10 15 -10 12 0 18 5 15 10 -3 6 -10 10 -15 10
-5 0 -12 -4 -15 -10z"/>
<path d="M2323 2700 c0 -25 2 -35 4 -22 2 12 2 32 0 45 -2 12 -4 2 -4 -23z"/>
<path d="M2620 2650 c0 -5 5 -10 10 -10 6 0 10 5 10 10 0 6 -4 10 -10 10 -5 0
-10 -4 -10 -10z"/>
<path d="M1865 2507 c-22 -54 2 -122 31 -83 9 13 13 14 17 4 3 -7 5 4 4 24 -2
48 -14 49 -23 3 -8 -43 -21 -46 -21 -5 0 16 4 27 8 25 4 -3 7 11 6 30 -1 19
-3 35 -4 35 -2 0 -10 -15 -18 -33z"/>
<path d="M2960 2510 c0 -5 5 -10 10 -10 6 0 10 5 10 10 0 6 -4 10 -10 10 -5 0
-10 -4 -10 -10z"/>
<path d="M1800 2375 c-41 -87 -43 -103 -22 -142 15 -26 15 -36 2 -28 -7 5 -30
-32 -30 -48 0 -1 11 -2 23 -2 20 0 24 5 25 32 1 18 9 44 18 58 9 14 14 28 10
32 -3 3 -6 1 -6 -5 0 -7 -4 -12 -9 -12 -5 0 -7 9 -4 20 7 27 -5 25 -17 -2 -8
-21 -9 -21 -9 -3 0 24 17 67 18 46 1 -8 4 -11 8 -8 3 4 12 2 20 -4 10 -9 13
-8 13 4 0 9 -9 19 -20 22 -11 3 -20 14 -20 23 1 15 2 15 11 -1 8 -14 14 -16
25 -6 11 9 15 8 20 -4 3 -9 13 -13 24 -10 17 5 17 6 2 25 -10 12 -25 28 -34
37 -18 15 -25 37 -10 27 4 -2 9 4 9 15 3 34 -6 21 -47 -66z m31 0 c5 4 6 -1 2
-10 -5 -13 -7 -14 -14 -3 -5 7 -8 18 -8 23 0 6 3 4 6 -3 2 -6 9 -10 14 -7z"/>
<path d="M2322 2320 c0 -14 2 -19 5 -12 2 6 2 18 0 25 -3 6 -5 1 -5 -13z"/>
<path d="M2633 2300 c0 -25 2 -35 4 -22 2 12 2 32 0 45 -2 12 -4 2 -4 -23z"/>
<path d="M1746 2261 c-4 -5 -3 -17 1 -27 4 -11 3 -15 -4 -11 -7 5 -9 -1 -6
-15 3 -17 2 -19 -5 -10 -13 18 -23 -7 -15 -40 4 -18 3 -20 -6 -8 -11 16 -11
16 -15 -32 -1 -7 -4 -15 -8 -18 -4 -3 -9 -21 -10 -40 -3 -30 0 -35 20 -38 18
-3 22 -10 22 -43 0 -32 -3 -39 -20 -39 -11 0 -20 -5 -20 -11 0 -6 7 -8 16 -5
9 3 20 6 25 6 5 0 9 19 9 41 0 27 6 46 17 54 13 10 14 17 5 45 -14 40 -15 60
-2 40 5 -8 10 -10 10 -5 0 6 -4 16 -9 24 -7 11 -10 9 -16 -8 -3 -11 -10 -21
-15 -21 -6 0 -5 12 1 27 5 14 8 32 5 40 -3 7 1 13 9 13 8 0 16 8 17 18 6 72 5
82 -6 63z m-28 -213 c-7 -19 -38 -22 -38 -4 0 10 9 16 21 16 12 0 19 -5 17
-12z"/>
<path d="M1955 2160 c-7 -21 0 -40 16 -40 5 0 9 8 9 18 0 10 5 23 12 30 9 9 7
12 -9 12 -13 0 -24 -8 -28 -20z"/>
<path d="M2113 2140 c0 -25 2 -35 4 -22 2 12 2 32 0 45 -2 12 -4 2 -4 -23z"/>
<path d="M1820 2114 c0 -10 28 -33 33 -27 3 3 0 12 -8 19 -14 15 -25 18 -25 8z"/>
<path d="M1780 2095 c0 -8 5 -15 10 -15 6 0 10 7 10 15 0 8 -4 15 -10 15 -5 0
-10 -7 -10 -15z"/>
<path d="M1960 2090 c0 -5 0 -12 0 -15 0 -3 3 -4 8 -2 4 1 6 5 5 10 -2 4 1 7
6 7 5 0 11 -5 13 -11 2 -6 15 -8 33 -3 26 6 27 8 10 15 -29 11 -75 11 -75 -1z"/>
<path d="M2330 2047 c0 -31 4 -57 10 -57 5 0 7 22 3 53 -8 71 -13 72 -13 4z"/>
<path d="M3285 2051 c-4 -22 -13 -42 -21 -45 -9 -3 -12 -10 -9 -16 12 -19 24
-10 33 23 l9 32 8 -28 c4 -16 3 -33 -4 -41 -6 -7 -8 -15 -5 -19 3 -3 -4 -8
-15 -12 -21 -6 -29 -25 -11 -25 6 0 10 5 10 10 0 6 5 10 12 10 9 0 9 -3 0 -12
-16 -16 -15 -65 2 -71 7 -3 18 -1 24 5 7 7 12 -7 17 -43 5 -36 4 -54 -4 -57
-14 -5 -14 -85 0 -99 8 -8 8 -25 1 -60 -6 -27 -9 -60 -6 -74 3 -15 -1 -12 -11
11 l-15 35 6 -35 c4 -19 6 -51 5 -70 -1 -22 2 -31 8 -25 20 20 39 349 26 440
-8 50 -19 51 -35 2 -10 -32 -10 -32 -5 7 2 22 10 43 16 47 9 5 7 25 -6 78 -9
39 -19 71 -20 71 -2 0 -6 -18 -10 -39z m32 -93 c-3 -8 -6 -5 -6 6 -1 11 2 17
5 13 3 -3 4 -12 1 -19z"/>
<path d="M2149 2073 c-1 -5 -1 -11 0 -15 1 -7 -31 -12 -66 -11 -27 1 -11 -14
36 -35 28 -13 56 -20 66 -16 13 5 16 4 11 -4 -5 -8 -2 -10 9 -6 22 9 13 15
-42 30 -27 7 -38 13 -25 13 17 1 22 7 22 26 0 23 -8 36 -11 18z"/>
<path d="M2035 2060 c-3 -5 1 -10 10 -10 9 0 13 5 10 10 -3 6 -8 10 -10 10 -2
0 -7 -4 -10 -10z"/>
<path d="M1649 1972 c-18 -61 -17 -465 1 -532 6 -25 16 -71 22 -104 8 -43 16
-60 30 -64 10 -2 18 -9 18 -14 0 -5 -4 -6 -10 -3 -16 10 -12 -32 5 -49 17 -17
20 -30 5 -21 -15 9 -13 5 28 -86 55 -123 60 -131 85 -127 18 2 23 11 25 46 3
41 -12 59 -21 25 -4 -16 -5 -16 -6 -1 -1 10 -9 16 -21 15 -13 -1 -19 -6 -15
-15 3 -7 5 -17 6 -20 0 -4 4 2 9 13 8 19 9 19 9 -2 1 -13 -3 -23 -9 -23 -18 0
-28 36 -24 83 3 37 1 47 -11 47 -9 0 -15 -9 -16 -22 0 -14 -2 -17 -6 -8 -2 8
-7 22 -10 30 -4 8 -7 40 -8 70 -2 38 0 47 5 30 l8 -25 1 25 c1 33 -9 47 -39
53 -24 4 -24 4 3 6 26 1 28 4 25 38 -3 41 -23 55 -33 23 -12 -39 -29 -4 -29
58 0 35 -2 47 -6 32 l-6 -25 -7 24 c-3 14 -2 30 3 36 5 6 7 29 5 51 -4 32 -3
35 5 14 6 -18 7 -6 3 38 l-6 63 27 -11 c41 -15 46 -13 46 20 0 30 -1 30 -40
24 -28 -5 -40 -3 -40 5 0 7 3 10 8 8 4 -3 7 22 8 56 0 40 -2 54 -8 41 -5 -12
-6 -6 -2 16 9 51 4 105 -12 131 -4 7 -3 9 3 6 12 -7 23 14 23 43 0 38 -18 28
-31 -18z m8 -104 c-3 -8 -6 -5 -6 6 -1 11 2 17 5 13 3 -3 4 -12 1 -19z m-10
-110 c-3 -8 -6 -5 -6 6 -1 11 2 17 5 13 3 -3 4 -12 1 -19z m13 -140 c0 -31 -3
-39 -11 -31 -7 7 -8 24 -4 42 9 43 15 39 15 -11z"/>
<path d="M1763 1980 c0 -25 2 -35 4 -22 2 12 2 32 0 45 -2 12 -4 2 -4 -23z"/>
<path d="M2622 1990 c0 -19 3 -57 8 -85 6 -40 7 -43 8 -15 0 19 -3 58 -8 85
-6 40 -7 43 -8 15z"/>
<path d="M3200 1965 c0 -9 5 -15 11 -13 6 2 11 8 11 13 0 5 -5 11 -11 13 -6 2
-11 -4 -11 -13z"/>
<path d="M1840 1943 c0 -13 5 -23 10 -23 13 0 13 11 0 30 -8 12 -10 11 -10 -7z"/>
<path d="M2601 1783 c-1 -103 3 -163 9 -163 12 0 12 200 0 275 -5 36 -8 5 -9
-112z"/>
<path d="M3200 1870 c0 -5 5 -10 10 -10 6 0 10 5 10 10 0 6 -4 10 -10 10 -5 0
-10 -4 -10 -10z"/>
<path d="M1720 1820 c0 -28 4 -40 14 -40 10 0 16 -14 19 -42 2 -24 4 -6 5 40
2 76 1 82 -18 82 -17 0 -20 -7 -20 -40z"/>
<path d="M3123 1820 c0 -25 2 -35 4 -22 2 12 2 32 0 45 -2 12 -4 2 -4 -23z"/>
<path d="M3288 1792 c-4 -12 -2 -22 2 -22 5 0 11 -17 13 -37 l4 -38 1 40 c0
22 -3 49 -7 59 -7 19 -8 19 -13 -2z"/>
<path d="M2713 1740 c0 -25 2 -35 4 -22 2 12 2 32 0 45 -2 12 -4 2 -4 -23z"/>
<path d="M3282 1695 c0 -16 2 -22 5 -12 2 9 2 23 0 30 -3 6 -5 -1 -5 -18z"/>
<path d="M3304 1670 c3 -14 6 -43 7 -65 l1 -40 9 37 c6 28 5 44 -7 65 -15 27
-16 27 -10 3z"/>
<path d="M2030 1630 c0 -5 5 -10 10 -10 6 0 10 5 10 10 0 6 -4 10 -10 10 -5 0
-10 -4 -10 -10z"/>
<path d="M3280 1625 c0 -8 4 -15 10 -15 5 0 7 7 4 15 -4 8 -8 15 -10 15 -2 0
-4 -7 -4 -15z"/>
<path d="M3153 1580 c0 -25 2 -35 4 -22 2 12 2 32 0 45 -2 12 -4 2 -4 -23z"/>
<path d="M2382 1580 c0 -14 2 -19 5 -12 2 6 2 18 0 25 -3 6 -5 1 -5 -13z"/>
<path d="M2176 1574 c-9 -24 -7 -27 9 -10 17 17 19 26 6 26 -5 0 -12 -7 -15
-16z"/>
<path d="M3279 1563 c-1 -16 -1 -32 0 -37 3 -16 13 -91 14 -106 0 -8 -3 -29
-7 -46 -5 -24 -3 -33 9 -38 14 -5 15 0 11 30 -4 22 -2 33 4 29 5 -3 10 3 10
14 0 10 -4 21 -10 23 -5 2 -11 38 -12 80 -2 43 -6 78 -10 78 -5 0 -9 -12 -9
-27z"/>
<path d="M2631 1424 c0 -11 3 -14 6 -6 3 7 2 16 -1 19 -3 4 -6 -2 -5 -13z"/>
<path d="M2631 1364 c0 -11 3 -14 6 -6 3 7 2 16 -1 19 -3 4 -6 -2 -5 -13z"/>
<path d="M2351 1326 c-7 -8 -8 -17 -3 -20 6 -3 15 1 21 8 7 8 8 17 3 20 -6 3
-15 -1 -21 -8z"/>
<path d="M1820 1280 c0 -11 5 -20 10 -20 6 0 10 9 10 20 0 11 -4 20 -10 20 -5
0 -10 -9 -10 -20z"/>
<path d="M3221 1284 c0 -11 3 -14 6 -6 3 7 2 16 -1 19 -3 4 -6 -2 -5 -13z"/>
<path d="M2624 1229 c-3 -6 -1 -16 5 -22 8 -8 11 -5 11 11 0 24 -5 28 -16 11z"/>
<path d="M1776 1204 c-27 -27 -14 -52 29 -58 17 -2 22 -1 13 1 -24 6 -23 24 2
51 l21 22 -25 0 c-13 0 -32 -7 -40 -16z"/>
<path d="M3150 1210 c0 -5 5 -10 10 -10 6 0 10 5 10 10 0 6 -4 10 -10 10 -5 0
-10 -4 -10 -10z"/>
<path d="M1746 1155 c4 -8 8 -15 10 -15 2 0 4 7 4 15 0 8 -4 15 -10 15 -5 0
-7 -7 -4 -15z"/>
<path d="M1831 1084 c0 -11 3 -14 6 -6 3 7 2 16 -1 19 -3 4 -6 -2 -5 -13z"/>
<path d="M2323 980 c0 -47 2 -66 4 -42 2 23 2 61 0 85 -2 23 -4 4 -4 -43z"/>
<path d="M1860 970 c-13 -8 -12 -12 4 -27 18 -17 19 -17 12 1 -4 12 -1 23 6
28 7 4 9 8 3 8 -5 0 -17 -5 -25 -10z"/>
<path d="M3092 968 c-17 -17 -15 -25 8 -31 13 -3 24 1 30 13 15 28 -14 42 -38
18z"/>
<path d="M1826 948 c41 -70 152 -188 176 -188 6 0 20 -11 32 -24 11 -14 27
-26 35 -28 8 -2 23 -10 33 -18 10 -8 44 -24 75 -36 55 -21 74 -21 143 1 38 11
17 -5 -27 -21 l-38 -14 45 6 c56 8 74 20 57 39 -7 7 -15 11 -19 9 -3 -2 -9 2
-11 8 -4 9 -6 7 -6 -3 -1 -10 -13 -19 -32 -23 -45 -9 -57 -7 -36 5 18 11 14
29 -6 29 -9 0 -8 -3 1 -8 9 -6 6 -12 -13 -20 -16 -8 -25 -8 -25 -1 0 6 -4 8
-9 5 -5 -3 -22 1 -37 9 -16 8 -34 15 -40 15 -7 0 -14 9 -17 20 -3 13 0 20 9
20 7 0 11 -6 8 -14 -3 -8 3 -16 15 -19 23 -6 29 8 9 16 -10 4 -10 6 0 6 24 2
12 16 -15 18 -15 0 -29 6 -31 12 -2 6 -12 11 -23 11 -21 0 -26 15 -8 26 8 4 7
10 -1 18 -8 8 -15 6 -26 -9 -14 -19 -16 -19 -25 -2 -12 21 -30 13 -23 -11 4
-10 3 -13 -3 -6 -4 5 -19 18 -33 27 -13 9 -19 17 -13 17 7 0 15 -4 18 -10 3
-5 11 -10 16 -10 6 0 7 5 3 12 -4 7 -3 8 4 4 15 -9 15 -1 1 25 -8 16 -13 18
-25 8 -11 -9 -18 -8 -31 2 -9 8 -17 12 -19 9 -1 -3 -6 -1 -11 4 -4 5 -3 7 3 3
7 -4 11 7 11 31 0 20 -2 29 -4 19 -5 -18 -5 -18 -20 0 -14 17 -14 17 -10 -4 3
-13 1 -23 -4 -23 -5 0 -9 7 -9 16 0 9 -10 25 -22 35 -25 22 -32 24 -22 7z
m254 -218 c-8 -5 -19 -10 -25 -10 -5 0 -3 5 5 10 8 5 20 10 25 10 6 0 3 -5 -5
-10z"/>
<path d="M1890 950 c0 -5 5 -10 10 -10 6 0 10 5 10 10 0 6 -4 10 -10 10 -5 0
-10 -4 -10 -10z"/>
<path d="M2626 921 c-4 -7 -5 -15 -2 -18 9 -9 19 4 14 18 -4 11 -6 11 -12 0z"/>
<path d="M1981 901 c-10 -6 -10 -10 -1 -16 13 -8 24 -1 19 14 -3 6 -10 7 -18
2z"/>
<path d="M2012 844 c4 -21 22 -23 26 -1 2 10 -3 17 -13 17 -10 0 -15 -6 -13
-16z"/>
<path d="M2327 843 c-4 -3 -7 -15 -7 -25 0 -17 2 -18 15 -4 8 8 15 19 15 25 0
12 -13 15 -23 4z"/>
<path d="M2140 810 c0 -13 30 -13 50 0 11 7 7 10 -17 10 -18 0 -33 -4 -33 -10z"/>
<path d="M2553 781 c-2 -38 0 -41 26 -41 15 0 36 -8 47 -17 10 -10 32 -19 49
-21 33 -4 27 10 -8 15 -12 2 -25 10 -30 18 -5 9 -23 15 -42 15 -24 0 -35 5
-35 15 0 8 9 15 20 15 11 0 20 5 20 10 0 6 -9 10 -19 10 -11 0 -21 5 -23 11
-2 6 -4 -7 -5 -30z"/>
<path d="M2345 780 c3 -5 8 -10 11 -10 2 0 4 5 4 10 0 6 -5 10 -11 10 -5 0 -7
-4 -4 -10z"/>
<path d="M2222 755 c-17 -37 -15 -68 1 -37 7 12 16 20 19 17 3 -3 3 6 1 20 -6
31 -7 31 -21 0z"/>
<path d="M2375 750 c-3 -5 -15 -10 -26 -10 -10 0 -19 -5 -19 -11 0 -5 5 -7 10
-4 6 3 10 1 10 -4 0 -6 5 -11 10 -11 6 0 10 7 10 15 0 8 7 15 15 15 8 0 15 5
15 10 0 6 -4 10 -9 10 -6 0 -13 -4 -16 -10z"/>
<path d="M2275 690 c3 -5 8 -10 11 -10 2 0 4 5 4 10 0 6 -5 10 -11 10 -5 0 -7
-4 -4 -10z"/>
<path d="M2386 675 c-3 -8 -1 -15 4 -15 6 0 10 7 10 15 0 8 -2 15 -4 15 -2 0
-6 -7 -10 -15z"/>
<path d="M2563 665 c0 -9 9 -10 31 -4 29 8 30 7 12 -6 -22 -16 -10 -20 14 -5
8 5 11 12 6 17 -13 13 -63 11 -63 -2z"/>
<path d="M2646 648 c7 -10 64 -10 64 0 0 4 -15 8 -34 8 -19 0 -32 -4 -30 -8z"/>
</g>
</svg>
